<?xml version="1.0" standalone="no"?>
<!DOCTYPE svg PUBLIC "-//W3C//DTD SVG 20010904//EN"
 "http://www.w3.org/TR/2001/REC-SVG-20010904/DTD/svg10.dtd">
<svg version="1.0" xmlns="http://www.w3.org/2000/svg"
 width="260.000000pt" height="260.000000pt" viewBox="0 0 260.000000 260.000000"
 preserveAspectRatio="xMidYMid meet">
<metadata>
Created by potrace 1.11, written by Peter Selinger 2001-2013
</metadata>
<g transform="translate(0.000000,260.000000) scale(0.100000,-0.100000)"
fill="#000000" stroke="none">
<path d="M1132 2590 c-557 -79 -988 -483 -1108 -1041 -26 -118 -26 -380 0
-498 59 -273 167 -473 361 -666 193 -194 393 -302 666 -361 118 -26 380 -26
498 0 273 59 473 167 666 361 194 193 302 393 361 666 14 62 18 127 18 249 0
122 -4 187 -18 249 -59 273 -167 473 -361 666 -190 190 -383 297 -645 356 -98
22 -340 33 -438 19z m-357 -1009 c118 -58 179 -159 178 -291 -1 -152 -98 -267
-258 -307 -158 -39 -323 35 -392 175 -38 76 -40 191 -5 267 58 127 185 199
336 191 62 -3 91 -11 141 -35z m482 -156 c31 -96 60 -175 63 -175 4 0 31 78
61 173 l55 172 102 3 102 3 0 -306 0 -305 -85 0 -84 0 -3 136 -3 137 -36 -134
-36 -134 -74 -3 -74 -3 -40 143 -40 143 -3 -142 -3 -143 -84 0 -85 0 0 298 c0
164 3 302 7 305 3 4 50 7 104 7 l98 0 58 -175z m1073 90 l0 -85 -115 0 -115 0
0 -140 0 -140 115 0 115 0 0 -80 0 -80 -325 0 -325 0 0 80 0 79 123 3 122 3 3
138 3 137 -126 0 -125 0 0 85 0 85 325 0 325 0 0 -85z"/>
<path d="M545 1426 c-56 -25 -70 -51 -70 -128 0 -66 2 -71 32 -98 60 -54 153
-52 210 5 30 30 33 38 33 93 0 45 -5 66 -21 86 -42 53 -119 71 -184 42z"/>
</g>
</svg>
